<?xml version="1.0" encoding="UTF-8" standalone="no"?>
<!DOCTYPE svg PUBLIC "-//W3C//DTD SVG 1.1//EN"
 "http://www.w3.org/Graphics/SVG/1.1/DTD/svg11.dtd">
<!-- Generated by graphviz version 2.43.0 (0)
 -->
<!-- Title: G Pages: 1 -->
<svg width="942pt" height="542pt"
 viewBox="0.00 0.00 942.00 541.82" xmlns="http://www.w3.org/2000/svg" xmlns:xlink="http://www.w3.org/1999/xlink">
<g id="graph0" class="graph" transform="scale(1 1) rotate(0) translate(4 537.82)">
<title>G</title>
<polygon fill="white" stroke="transparent" points="-4,4 -4,-537.82 938,-537.82 938,4 -4,4"/>
<text text-anchor="middle" x="467" y="-7.8" font-family="Handlee" font-size="14.00">Modelling with 1 quant using multiple machines with GPUs</text>
<g id="clust1" class="cluster">
<title>cluster_infio</title>
<polygon fill="none" stroke="black" stroke-dasharray="5,2" points="149,-274 149,-421 583,-421 583,-274 149,-274"/>
<text text-anchor="middle" x="366" y="-405.8" font-family="Handlee" font-size="14.00">inf.io</text>
</g>
<g id="clust2" class="cluster">
<title>cluster_client</title>
<polygon fill="none" stroke="black" stroke-dasharray="5,2" points="8,-31 8,-266 366,-266 366,-31 8,-31"/>
<text text-anchor="start" x="98.5" y="-251.8" font-family="Handlee" font-size="14.00"> &#160;&#160;&#160;&#160;&#160;Client python session</text>
<text text-anchor="start" x="82.5" y="-237.8" font-family="Handlee" font-size="14.00"> &#160;&#160;&#160;&#160;&#160;on machine </text>
<text text-anchor="start" x="195.5" y="-237.8" font-family="Handlee" font-size="14.00" fill="#00cd00">1 </text>
<text text-anchor="start" x="209.5" y="-237.8" font-family="Handlee" font-size="14.00">with GPU &#160;&#160;&#160;</text>
</g>
<g id="clust3" class="cluster">
<title>cluster_machines</title>
</g>
<g id="clust5" class="cluster">
<title>cluster_legend</title>
<polygon fill="none" stroke="black" stroke-dasharray="1,5" points="807,-104 807,-525.82 926,-525.82 926,-104 807,-104"/>
<text text-anchor="middle" x="866.5" y="-497.82" font-family="Handlee" font-size="30.00">legend</text>
</g>
<!-- raw_hist1 -->
<g id="node1" class="node">
<title>raw_hist1</title>
<polygon fill="none" stroke="black" points="357.09,-452.23 333.5,-477.31 238,-488.47 142.5,-477.31 118.91,-452.23 185,-432.11 291,-432.11 357.09,-452.23"/>
<text text-anchor="middle" x="238" y="-462.62" font-family="Handlee" font-size="14.00">Raw Historical Data</text>
<text text-anchor="middle" x="238" y="-447.62" font-family="Handlee" font-size="14.00">(CME)</text>
</g>
<!-- norm_hist_data1 -->
<g id="node3" class="node">
<title>norm_hist_data1</title>
<path fill="none" stroke="black" d="M357,-386.73C357,-388.53 312.18,-390 257,-390 201.82,-390 157,-388.53 157,-386.73 157,-386.73 157,-357.27 157,-357.27 157,-355.47 201.82,-354 257,-354 312.18,-354 357,-355.47 357,-357.27 357,-357.27 357,-386.73 357,-386.73"/>
<path fill="none" stroke="black" d="M357,-386.73C357,-384.92 312.18,-383.45 257,-383.45 201.82,-383.45 157,-384.92 157,-386.73"/>
<text text-anchor="middle" x="257" y="-368.3" font-family="Handlee" font-size="14.00">Normalized Historical Data</text>
</g>
<!-- raw_hist1&#45;&gt;norm_hist_data1 -->
<g id="edge4" class="edge">
<title>raw_hist1&#45;&gt;norm_hist_data1</title>
<path fill="none" stroke="black" d="M243.8,-431.91C246.06,-421.86 248.64,-410.34 250.91,-400.17"/>
<polygon fill="black" stroke="black" points="254.38,-400.7 253.15,-390.18 247.55,-399.17 254.38,-400.7"/>
</g>
<!-- raw_hist2 -->
<g id="node2" class="node">
<title>raw_hist2</title>
<polygon fill="none" stroke="black" points="614.09,-452.23 590.5,-477.31 495,-488.47 399.5,-477.31 375.91,-452.23 442,-432.11 548,-432.11 614.09,-452.23"/>
<text text-anchor="middle" x="495" y="-462.62" font-family="Handlee" font-size="14.00">Raw Historical Data</text>
<text text-anchor="middle" x="495" y="-447.62" font-family="Handlee" font-size="14.00">(BTec, ...)</text>
</g>
<!-- norm_hist_data2 -->
<g id="node4" class="node">
<title>norm_hist_data2</title>
<path fill="none" stroke="black" d="M575,-386.73C575,-388.53 530.18,-390 475,-390 419.82,-390 375,-388.53 375,-386.73 375,-386.73 375,-357.27 375,-357.27 375,-355.47 419.82,-354 475,-354 530.18,-354 575,-355.47 575,-357.27 575,-357.27 575,-386.73 575,-386.73"/>
<path fill="none" stroke="black" d="M575,-386.73C575,-384.92 530.18,-383.45 475,-383.45 419.82,-383.45 375,-384.92 375,-386.73"/>
<text text-anchor="middle" x="475" y="-368.3" font-family="Handlee" font-size="14.00">Normalized Historical Data</text>
</g>
<!-- raw_hist2&#45;&gt;norm_hist_data2 -->
<g id="edge6" class="edge">
<title>raw_hist2&#45;&gt;norm_hist_data2</title>
<path fill="none" stroke="black" d="M488.89,-431.91C486.52,-421.86 483.8,-410.34 481.41,-400.17"/>
<polygon fill="black" stroke="black" points="484.75,-399.11 479.05,-390.18 477.94,-400.72 484.75,-399.11"/>
</g>
<!-- norm_hist -->
<g id="node5" class="node">
<title>norm_hist</title>
<ellipse fill="none" stroke="black" cx="366" cy="-300" rx="172.77" ry="18"/>
<text text-anchor="middle" x="366" y="-296.3" font-family="Handlee" font-size="14.00">Normalized and Intervalized History</text>
</g>
<!-- norm_hist_data1&#45;&gt;norm_hist -->
<g id="edge5" class="edge">
<title>norm_hist_data1&#45;&gt;norm_hist</title>
<path fill="none" stroke="black" d="M283.66,-353.88C297.89,-344.74 315.57,-333.38 330.9,-323.54"/>
<polygon fill="black" stroke="black" points="333.09,-326.3 339.61,-317.95 329.31,-320.41 333.09,-326.3"/>
</g>
<!-- norm_hist_data2&#45;&gt;norm_hist -->
<g id="edge7" class="edge">
<title>norm_hist_data2&#45;&gt;norm_hist</title>
<path fill="none" stroke="black" d="M448.34,-353.88C434.11,-344.74 416.43,-333.38 401.1,-323.54"/>
<polygon fill="black" stroke="black" points="402.69,-320.41 392.39,-317.95 398.91,-326.3 402.69,-320.41"/>
</g>
<!-- feature -->
<g id="node6" class="node">
<title>feature</title>
<polygon fill="none" stroke="black" points="357.5,-222 16.5,-222 16.5,-186 357.5,-186 357.5,-222"/>
<text text-anchor="middle" x="187" y="-200.3" font-family="Handlee" font-size="14.00">Feature extraction using GPU accelerated code</text>
</g>
<!-- norm_hist&#45;&gt;feature -->
<g id="edge8" class="edge">
<title>norm_hist&#45;&gt;feature</title>
<path fill="none" stroke="black" d="M334,-282.19C304.62,-266.77 260.9,-243.81 228.78,-226.94"/>
<polygon fill="black" stroke="black" points="230.11,-223.69 219.63,-222.14 226.86,-229.88 230.11,-223.69"/>
</g>
<!-- machine2 -->
<g id="node10" class="node">
<title>machine2</title>
<polygon fill="none" stroke="black" stroke-dasharray="5,2" points="561.5,-223 386.5,-223 382.5,-219 382.5,-185 557.5,-185 561.5,-189 561.5,-223"/>
<polyline fill="none" stroke="black" stroke-dasharray="5,2" points="557.5,-219 382.5,-219 "/>
<polyline fill="none" stroke="black" stroke-dasharray="5,2" points="557.5,-219 557.5,-185 "/>
<polyline fill="none" stroke="black" stroke-dasharray="5,2" points="557.5,-219 561.5,-223 "/>
<text text-anchor="middle" x="472" y="-207.8" font-family="Handlee" font-size="14.00" fill="#00cd00">Client python session</text>
<text text-anchor="middle" x="472" y="-192.8" font-family="Handlee" font-size="14.00" fill="#00cd00">on machine 2 with GPU</text>
</g>
<!-- norm_hist&#45;&gt;machine2 -->
<!-- ML_training -->
<g id="node7" class="node">
<title>ML_training</title>
<polygon fill="none" stroke="black" points="334.5,-148 39.5,-148 39.5,-112 334.5,-112 334.5,-148"/>
<text text-anchor="middle" x="187" y="-126.3" font-family="Handlee" font-size="14.00">ML Training using GPU accelerated code</text>
</g>
<!-- feature&#45;&gt;ML_training -->
<g id="edge9" class="edge">
<title>feature&#45;&gt;ML_training</title>
<path fill="none" stroke="black" d="M181.16,-185.94C180.3,-177.81 180.05,-167.88 180.41,-158.7"/>
<polygon fill="black" stroke="black" points="183.92,-158.66 181.12,-148.44 176.94,-158.18 183.92,-158.66"/>
</g>
<!-- user_disk -->
<g id="node8" class="node">
<title>user_disk</title>
<path fill="none" stroke="black" d="M355.5,-71.73C355.5,-73.53 331.97,-75 303,-75 274.03,-75 250.5,-73.53 250.5,-71.73 250.5,-71.73 250.5,-42.27 250.5,-42.27 250.5,-40.47 274.03,-39 303,-39 331.97,-39 355.5,-40.47 355.5,-42.27 355.5,-42.27 355.5,-71.73 355.5,-71.73"/>
<path fill="none" stroke="black" d="M355.5,-71.73C355.5,-69.92 331.97,-68.45 303,-68.45 274.03,-68.45 250.5,-69.92 250.5,-71.73"/>
<text text-anchor="middle" x="303" y="-53.3" font-family="Handlee" font-size="14.00">local storage</text>
</g>
<!-- feature&#45;&gt;user_disk -->
<g id="edge13" class="edge">
<title>feature&#45;&gt;user_disk</title>
<path fill="none" stroke="black" d="M294.25,-185.93C313.76,-177.88 331.78,-166.13 344,-149 355.62,-132.72 351.12,-122.69 344,-104 341.05,-96.27 336.15,-89.01 330.73,-82.64"/>
<polygon fill="black" stroke="black" points="333.08,-80.03 323.71,-75.09 327.95,-84.8 333.08,-80.03"/>
</g>
<!-- ML_training&#45;&gt;feature -->
<g id="edge12" class="edge">
<title>ML_training&#45;&gt;feature</title>
<path fill="none" stroke="black" d="M192.88,-148.44C193.72,-156.63 193.95,-166.57 193.57,-175.72"/>
<polygon fill="black" stroke="black" points="190.06,-175.71 192.84,-185.94 197.04,-176.21 190.06,-175.71"/>
</g>
<!-- ML_training&#45;&gt;user_disk -->
<g id="edge10" class="edge">
<title>ML_training&#45;&gt;user_disk</title>
<path fill="none" stroke="black" d="M214.78,-111.99C230.17,-102.58 249.48,-90.76 266.12,-80.57"/>
<polygon fill="black" stroke="black" points="268.34,-83.32 275.04,-75.11 264.68,-77.35 268.34,-83.32"/>
</g>
<!-- ML_testing -->
<g id="node9" class="node">
<title>ML_testing</title>
<polygon fill="none" stroke="black" points="231.5,-75 142.5,-75 142.5,-39 231.5,-39 231.5,-75"/>
<text text-anchor="middle" x="187" y="-53.3" font-family="Handlee" font-size="14.00">ML testing</text>
</g>
<!-- ML_training&#45;&gt;ML_testing -->
<g id="edge11" class="edge">
<title>ML_training&#45;&gt;ML_testing</title>
<path fill="none" stroke="black" d="M187,-111.81C187,-103.79 187,-94.05 187,-85.07"/>
<polygon fill="black" stroke="black" points="190.5,-85.03 187,-75.03 183.5,-85.03 190.5,-85.03"/>
</g>
<!-- machine3 -->
<g id="node11" class="node">
<title>machine3</title>
<polygon fill="none" stroke="black" stroke-dasharray="5,2" points="561.5,-149 386.5,-149 382.5,-145 382.5,-111 557.5,-111 561.5,-115 561.5,-149"/>
<polyline fill="none" stroke="black" stroke-dasharray="5,2" points="557.5,-145 382.5,-145 "/>
<polyline fill="none" stroke="black" stroke-dasharray="5,2" points="557.5,-145 557.5,-111 "/>
<polyline fill="none" stroke="black" stroke-dasharray="5,2" points="557.5,-145 561.5,-149 "/>
<text text-anchor="middle" x="472" y="-133.8" font-family="Handlee" font-size="14.00" fill="#00cd00">Client python session</text>
<text text-anchor="middle" x="472" y="-118.8" font-family="Handlee" font-size="14.00" fill="#00cd00">on machine 3 with GPU</text>
</g>
<!-- machine2&#45;&gt;machine3 -->
<!-- machine4 -->
<g id="node12" class="node">
<title>machine4</title>
<polygon fill="none" stroke="black" stroke-dasharray="5,2" points="542,-75 406,-75 402,-71 402,-39 538,-39 542,-43 542,-75"/>
<polyline fill="none" stroke="black" stroke-dasharray="5,2" points="538,-71 402,-71 "/>
<polyline fill="none" stroke="black" stroke-dasharray="5,2" points="538,-71 538,-39 "/>
<polyline fill="none" stroke="black" stroke-dasharray="5,2" points="538,-71 542,-75 "/>
<text text-anchor="middle" x="472" y="-53.3" font-family="Handlee" font-size="14.00" fill="#00cd00">More machines ...</text>
</g>
<!-- machine3&#45;&gt;machine4 -->
<!-- Database -->
<g id="node13" class="node">
<title>Database</title>
<path fill="none" stroke="black" d="M907,-473.55C907,-475.36 888.62,-476.82 866,-476.82 843.38,-476.82 825,-475.36 825,-473.55 825,-473.55 825,-444.1 825,-444.1 825,-442.29 843.38,-440.82 866,-440.82 888.62,-440.82 907,-442.29 907,-444.1 907,-444.1 907,-473.55 907,-473.55"/>
<path fill="none" stroke="black" d="M907,-473.55C907,-471.74 888.62,-470.28 866,-470.28 843.38,-470.28 825,-471.74 825,-473.55"/>
<text text-anchor="middle" x="866" y="-455.12" font-family="Handlee" font-size="14.00">Database</text>
</g>
<!-- Cloud -->
<g id="node14" class="node">
<title>Cloud</title>
<polygon fill="none" stroke="black" points="906.29,-367.99 898.31,-383.22 866,-390 833.69,-383.22 825.71,-367.99 848.07,-355.78 883.93,-355.78 906.29,-367.99"/>
<text text-anchor="middle" x="866" y="-368.3" font-family="Handlee" font-size="14.00">Cloud</text>
</g>
<!-- Database&#45;&gt;Cloud -->
<!-- Server -->
<g id="node15" class="node">
<title>Server</title>
<ellipse fill="none" stroke="black" cx="866" cy="-300" rx="40.09" ry="18"/>
<text text-anchor="middle" x="866" y="-296.3" font-family="Handlee" font-size="14.00">Server</text>
</g>
<!-- Cloud&#45;&gt;Server -->
<!-- Code -->
<g id="node16" class="node">
<title>Code</title>
<polygon fill="none" stroke="black" points="893,-222 839,-222 839,-186 893,-186 893,-222"/>
<text text-anchor="middle" x="866" y="-200.3" font-family="Handlee" font-size="14.00">Code</text>
</g>
<!-- Server&#45;&gt;Code -->
<!-- Machine -->
<g id="node17" class="node">
<title>Machine</title>
<polygon fill="none" stroke="black" stroke-dasharray="5,2" points="903,-148 833,-148 829,-144 829,-112 899,-112 903,-116 903,-148"/>
<polyline fill="none" stroke="black" stroke-dasharray="5,2" points="899,-144 829,-144 "/>
<polyline fill="none" stroke="black" stroke-dasharray="5,2" points="899,-144 899,-112 "/>
<polyline fill="none" stroke="black" stroke-dasharray="5,2" points="899,-144 903,-148 "/>
<text text-anchor="middle" x="866" y="-126.3" font-family="Handlee" font-size="14.00">Machine</text>
</g>
<!-- Code&#45;&gt;Machine -->
</g>
</svg>
