<?xml version="1.0" encoding="UTF-8" standalone="no"?>
<!DOCTYPE svg PUBLIC "-//W3C//DTD SVG 1.1//EN"
 "http://www.w3.org/Graphics/SVG/1.1/DTD/svg11.dtd">
<!-- Generated by graphviz version 2.43.0 (0)
 -->
<!-- Title: G Pages: 1 -->
<svg width="1689pt" height="690pt"
 viewBox="0.00 0.00 1689.00 690.30" xmlns="http://www.w3.org/2000/svg" xmlns:xlink="http://www.w3.org/1999/xlink">
<g id="graph0" class="graph" transform="scale(1 1) rotate(0) translate(4 686.3)">
<title>G</title>
<polygon fill="white" stroke="transparent" points="-4,4 -4,-686.3 1685,-686.3 1685,4 -4,4"/>
<text text-anchor="middle" x="840.5" y="-37.8" font-family="Handlee" font-size="14.00">Modelling with 1 quant</text>
<text text-anchor="middle" x="840.5" y="-22.8" font-family="Handlee" font-size="14.00"> &#160;using multiple machines with GPUs</text>
<text text-anchor="middle" x="840.5" y="-7.8" font-family="Handlee" font-size="14.00"> &#160;with production&#45;like infra</text>
<g id="clust1" class="cluster">
<title>cluster_infio</title>
<polygon fill="none" stroke="black" stroke-dasharray="5,2" points="457,-422.48 457,-569.48 891,-569.48 891,-422.48 457,-422.48"/>
<text text-anchor="middle" x="674" y="-554.28" font-family="Handlee" font-size="14.00">inf.io</text>
</g>
<g id="clust3" class="cluster">
<title>cluster_server</title>
<polygon fill="none" stroke="black" stroke-dasharray="5,2" points="290,-290 290,-403.95 1546,-403.95 1546,-290 290,-290"/>
<text text-anchor="middle" x="918" y="-388.75" font-family="Handlee" font-size="14.00" fill="#cdcd00">Server 1 with GPU</text>
</g>
<g id="clust5" class="cluster">
<title>cluster_machines</title>
</g>
<g id="clust8" class="cluster">
<title>cluster_client</title>
<polygon fill="none" stroke="black" points="1045,-61 1045,-210 1319,-210 1319,-61 1045,-61"/>
<text text-anchor="middle" x="1182" y="-194.8" font-family="Handlee" font-size="14.00">Client python session</text>
</g>
<g id="clust13" class="cluster">
<title>cluster_legend</title>
<polygon fill="none" stroke="black" stroke-dasharray="1,5" points="1554,-218 1554,-674.3 1673,-674.3 1673,-218 1554,-218"/>
<text text-anchor="middle" x="1613.5" y="-646.3" font-family="Handlee" font-size="30.00">legend</text>
</g>
<!-- raw_hist1 -->
<g id="node1" class="node">
<title>raw_hist1</title>
<polygon fill="none" stroke="black" points="665.09,-600.7 641.5,-625.79 546,-636.95 450.5,-625.79 426.91,-600.7 493,-580.59 599,-580.59 665.09,-600.7"/>
<text text-anchor="middle" x="546" y="-611.1" font-family="Handlee" font-size="14.00">Raw Historical Data</text>
<text text-anchor="middle" x="546" y="-596.1" font-family="Handlee" font-size="14.00">(CME)</text>
</g>
<!-- norm_hist_data1 -->
<g id="node4" class="node">
<title>norm_hist_data1</title>
<path fill="none" stroke="black" d="M665,-535.2C665,-537.01 620.18,-538.48 565,-538.48 509.82,-538.48 465,-537.01 465,-535.2 465,-535.2 465,-505.75 465,-505.75 465,-503.94 509.82,-502.48 565,-502.48 620.18,-502.48 665,-503.94 665,-505.75 665,-505.75 665,-535.2 665,-535.2"/>
<path fill="none" stroke="black" d="M665,-535.2C665,-533.4 620.18,-531.93 565,-531.93 509.82,-531.93 465,-533.4 465,-535.2"/>
<text text-anchor="middle" x="565" y="-516.78" font-family="Handlee" font-size="14.00">Normalized Historical Data</text>
</g>
<!-- raw_hist1&#45;&gt;norm_hist_data1 -->
<g id="edge4" class="edge">
<title>raw_hist1&#45;&gt;norm_hist_data1</title>
<path fill="none" stroke="black" d="M551.8,-580.39C554.06,-570.34 556.64,-558.82 558.91,-548.65"/>
<polygon fill="black" stroke="black" points="562.38,-549.18 561.15,-538.66 555.55,-547.65 562.38,-549.18"/>
</g>
<!-- raw_hist2 -->
<g id="node2" class="node">
<title>raw_hist2</title>
<polygon fill="none" stroke="black" points="922.09,-600.7 898.5,-625.79 803,-636.95 707.5,-625.79 683.91,-600.7 750,-580.59 856,-580.59 922.09,-600.7"/>
<text text-anchor="middle" x="803" y="-611.1" font-family="Handlee" font-size="14.00">Raw Historical Data</text>
<text text-anchor="middle" x="803" y="-596.1" font-family="Handlee" font-size="14.00">(BTec, ...)</text>
</g>
<!-- norm_hist_data2 -->
<g id="node5" class="node">
<title>norm_hist_data2</title>
<path fill="none" stroke="black" d="M883,-535.2C883,-537.01 838.18,-538.48 783,-538.48 727.82,-538.48 683,-537.01 683,-535.2 683,-535.2 683,-505.75 683,-505.75 683,-503.94 727.82,-502.48 783,-502.48 838.18,-502.48 883,-503.94 883,-505.75 883,-505.75 883,-535.2 883,-535.2"/>
<path fill="none" stroke="black" d="M883,-535.2C883,-533.4 838.18,-531.93 783,-531.93 727.82,-531.93 683,-533.4 683,-535.2"/>
<text text-anchor="middle" x="783" y="-516.78" font-family="Handlee" font-size="14.00">Normalized Historical Data</text>
</g>
<!-- raw_hist2&#45;&gt;norm_hist_data2 -->
<g id="edge6" class="edge">
<title>raw_hist2&#45;&gt;norm_hist_data2</title>
<path fill="none" stroke="black" d="M796.89,-580.39C794.52,-570.34 791.8,-558.82 789.41,-548.65"/>
<polygon fill="black" stroke="black" points="792.75,-547.59 787.05,-538.66 785.94,-549.19 792.75,-547.59"/>
</g>
<!-- github -->
<g id="node3" class="node">
<title>github</title>
<polygon fill="none" stroke="black" points="1438.95,-82.99 1430.05,-98.22 1394,-105 1357.95,-98.22 1349.05,-82.99 1373.99,-70.78 1414.01,-70.78 1438.95,-82.99"/>
<text text-anchor="middle" x="1394" y="-83.3" font-family="Handlee" font-size="14.00">github</text>
</g>
<!-- admin -->
<g id="node12" class="node">
<title>admin</title>
<ellipse fill="none" stroke="black" cx="1426" cy="-335.48" rx="111.95" ry="26.74"/>
<text text-anchor="middle" x="1426" y="-339.28" font-family="Handlee" font-size="14.00">admin (deployment)</text>
<text text-anchor="middle" x="1426" y="-324.28" font-family="Handlee" font-size="14.00"> (via sshd?)</text>
</g>
<!-- github&#45;&gt;admin -->
<g id="edge15" class="edge">
<title>github&#45;&gt;admin</title>
<path fill="none" stroke="blue" d="M1397.49,-114.92C1403.69,-162.66 1416.53,-261.55 1422.64,-308.57"/>
<polygon fill="blue" stroke="blue" points="1400.93,-114.21 1396.17,-104.74 1393.99,-115.11 1400.93,-114.21"/>
</g>
<!-- norm_hist -->
<g id="node6" class="node">
<title>norm_hist</title>
<ellipse fill="none" stroke="black" cx="642" cy="-448.48" rx="172.77" ry="18"/>
<text text-anchor="middle" x="642" y="-444.78" font-family="Handlee" font-size="14.00">Normalized and Intervalized History</text>
</g>
<!-- norm_hist_data1&#45;&gt;norm_hist -->
<g id="edge5" class="edge">
<title>norm_hist_data1&#45;&gt;norm_hist</title>
<path fill="none" stroke="black" d="M584.03,-502.17C593.54,-493.53 605.21,-482.93 615.57,-473.5"/>
<polygon fill="black" stroke="black" points="618.14,-475.9 623.19,-466.58 613.43,-470.72 618.14,-475.9"/>
</g>
<!-- norm_hist_data2&#45;&gt;norm_hist -->
<g id="edge7" class="edge">
<title>norm_hist_data2&#45;&gt;norm_hist</title>
<path fill="none" stroke="black" d="M748.51,-502.35C729.28,-492.81 705.16,-480.83 684.74,-470.7"/>
<polygon fill="black" stroke="black" points="686.16,-467.49 675.65,-466.18 683.05,-473.76 686.16,-467.49"/>
</g>
<!-- stock_feature -->
<g id="node14" class="node">
<title>stock_feature</title>
<ellipse fill="none" stroke="black" cx="1086" cy="-335.48" rx="210.94" ry="26.74"/>
<text text-anchor="middle" x="1086" y="-339.28" font-family="Handlee" font-size="14.00">(parameterized) stock feature extraction</text>
<text text-anchor="middle" x="1086" y="-324.28" font-family="Handlee" font-size="14.00"> &#160;&#160;&#160;&#160;&#160;using GPU accelerated code</text>
</g>
<!-- norm_hist&#45;&gt;stock_feature -->
<g id="edge8" class="edge">
<title>norm_hist&#45;&gt;stock_feature</title>
<path fill="none" stroke="blue" d="M767.38,-433.54C800.06,-428.7 835.06,-422.43 867,-414.48 922.03,-400.78 982.62,-378.63 1026.09,-361.42"/>
<polygon fill="blue" stroke="blue" points="766.71,-430.1 757.31,-435 767.71,-437.03 766.71,-430.1"/>
</g>
<!-- machine2 -->
<g id="node16" class="node">
<title>machine2</title>
<polygon fill="none" stroke="black" stroke-dasharray="5,2" points="269.5,-353.48 130.5,-353.48 126.5,-349.48 126.5,-317.48 265.5,-317.48 269.5,-321.48 269.5,-353.48"/>
<polyline fill="none" stroke="black" stroke-dasharray="5,2" points="265.5,-349.48 126.5,-349.48 "/>
<polyline fill="none" stroke="black" stroke-dasharray="5,2" points="265.5,-349.48 265.5,-317.48 "/>
<polyline fill="none" stroke="black" stroke-dasharray="5,2" points="265.5,-349.48 269.5,-353.48 "/>
<text text-anchor="middle" x="198" y="-331.78" font-family="Handlee" font-size="14.00" fill="#00cd00">Server 2 with GPU</text>
</g>
<!-- norm_hist&#45;&gt;machine2 -->
<!-- io_lb -->
<g id="node7" class="node">
<title>io_lb</title>
<ellipse fill="none" stroke="black" cx="589" cy="-244" rx="108.58" ry="18"/>
<text text-anchor="middle" x="589" y="-240.3" font-family="Handlee" font-size="14.00">storage load balancer</text>
</g>
<!-- feature -->
<g id="node19" class="node">
<title>feature</title>
<polygon fill="none" stroke="black" points="1119,-178 1053,-178 1053,-142 1119,-142 1119,-178"/>
<text text-anchor="middle" x="1086" y="-156.3" font-family="Handlee" font-size="14.00">feature</text>
</g>
<!-- io_lb&#45;&gt;feature -->
<g id="edge20" class="edge">
<title>io_lb&#45;&gt;feature</title>
<path fill="none" stroke="blue" d="M660.88,-227.06C676.08,-223.89 692.04,-220.71 707,-218 834.35,-194.95 986.96,-174.02 1052.94,-165.3"/>
<polygon fill="blue" stroke="blue" points="660.09,-223.65 651.02,-229.14 661.53,-230.5 660.09,-223.65"/>
</g>
<!-- feature_lb -->
<g id="node8" class="node">
<title>feature_lb</title>
<ellipse fill="none" stroke="black" cx="1086" cy="-244" rx="106.68" ry="18"/>
<text text-anchor="middle" x="1086" y="-240.3" font-family="Handlee" font-size="14.00">feature load balancer</text>
</g>
<!-- feature_lb&#45;&gt;feature -->
<g id="edge21" class="edge">
<title>feature_lb&#45;&gt;feature</title>
<path fill="none" stroke="blue" d="M1086,-215.36C1086,-203.01 1086,-188.86 1086,-178.08"/>
<polygon fill="blue" stroke="blue" points="1082.5,-215.61 1086,-225.61 1089.5,-215.61 1082.5,-215.61"/>
</g>
<!-- ml_lb -->
<g id="node9" class="node">
<title>ml_lb</title>
<ellipse fill="none" stroke="black" cx="375" cy="-244" rx="87.18" ry="18"/>
<text text-anchor="middle" x="375" y="-240.3" font-family="Handlee" font-size="14.00">ML load balancer</text>
</g>
<!-- ml_lb&#45;&gt;feature -->
<g id="edge22" class="edge">
<title>ml_lb&#45;&gt;feature</title>
<path fill="none" stroke="blue" d="M432.85,-226.32C445.35,-223.17 458.55,-220.18 471,-218 690.95,-179.43 960.02,-165.89 1052.75,-162.18"/>
<polygon fill="blue" stroke="blue" points="431.81,-222.97 423.01,-228.87 433.57,-229.75 431.81,-222.97"/>
</g>
<!-- admin_service -->
<g id="node10" class="node">
<title>admin_service</title>
<ellipse fill="none" stroke="black" cx="1304" cy="-244" rx="74.99" ry="18"/>
<text text-anchor="middle" x="1304" y="-240.3" font-family="Handlee" font-size="14.00">Admin service</text>
</g>
<!-- disk -->
<g id="node11" class="node">
<title>disk</title>
<path fill="none" stroke="black" d="M846,-258.73C846,-260.53 816.87,-262 781,-262 745.13,-262 716,-260.53 716,-258.73 716,-258.73 716,-229.27 716,-229.27 716,-227.47 745.13,-226 781,-226 816.87,-226 846,-227.47 846,-229.27 846,-229.27 846,-258.73 846,-258.73"/>
<path fill="none" stroke="black" d="M846,-258.73C846,-256.92 816.87,-255.45 781,-255.45 745.13,-255.45 716,-256.92 716,-258.73"/>
<text text-anchor="middle" x="781" y="-240.3" font-family="Handlee" font-size="14.00">network storage</text>
</g>
<!-- io -->
<g id="node13" class="node">
<title>io</title>
<ellipse fill="none" stroke="black" cx="781" cy="-335.48" rx="76.89" ry="18"/>
<text text-anchor="middle" x="781" y="-331.78" font-family="Handlee" font-size="14.00">storage server</text>
</g>
<!-- disk&#45;&gt;io -->
<g id="edge12" class="edge">
<title>disk&#45;&gt;io</title>
<path fill="none" stroke="black" d="M786.45,-262.2C787.84,-274.94 788.12,-292.54 787.27,-307.19"/>
<polygon fill="black" stroke="black" points="783.78,-306.97 786.46,-317.22 790.75,-307.54 783.78,-306.97"/>
</g>
<!-- admin&#45;&gt;admin_service -->
<g id="edge19" class="edge">
<title>admin&#45;&gt;admin_service</title>
<path fill="none" stroke="black" d="M1392.34,-309.79C1374.28,-296.54 1352.18,-280.34 1334.61,-267.45"/>
<polygon fill="black" stroke="black" points="1336.52,-264.51 1326.38,-261.42 1332.38,-270.15 1336.52,-264.51"/>
</g>
<!-- io&#45;&gt;io_lb -->
<g id="edge16" class="edge">
<title>io&#45;&gt;io_lb</title>
<path fill="none" stroke="black" d="M751.82,-318.69C735.3,-309.92 714.17,-299.01 695,-290 676.68,-281.39 656.27,-272.55 638.29,-265.01"/>
<polygon fill="black" stroke="black" points="639.16,-261.58 628.58,-260.97 636.46,-268.04 639.16,-261.58"/>
</g>
<!-- io&#45;&gt;disk -->
<g id="edge11" class="edge">
<title>io&#45;&gt;disk</title>
<path fill="none" stroke="black" d="M775.54,-317.22C774.15,-304.47 773.88,-286.86 774.73,-272.22"/>
<polygon fill="black" stroke="black" points="778.23,-272.45 775.55,-262.2 771.25,-271.88 778.23,-272.45"/>
</g>
<!-- io&#45;&gt;stock_feature -->
<g id="edge13" class="edge">
<title>io&#45;&gt;stock_feature</title>
<path fill="none" stroke="black" d="M847.12,-344.65C861.65,-346.1 876.19,-347.19 890.72,-347.91"/>
<polygon fill="black" stroke="black" points="890.63,-351.41 900.78,-348.36 890.94,-344.42 890.63,-351.41"/>
</g>
<!-- stock_ML -->
<g id="node15" class="node">
<title>stock_ML</title>
<ellipse fill="none" stroke="black" cx="492" cy="-335.48" rx="194.41" ry="37.45"/>
<text text-anchor="middle" x="492" y="-346.78" font-family="Handlee" font-size="14.00">Training, testing, evaluation of</text>
<text text-anchor="middle" x="492" y="-331.78" font-family="Handlee" font-size="14.00"> &#160;&#160;&#160;&#160;&#160;(parameterized) stock ML models</text>
<text text-anchor="middle" x="492" y="-316.78" font-family="Handlee" font-size="14.00"> &#160;&#160;&#160;&#160;&#160;using GPU accelerated code</text>
</g>
<!-- io&#45;&gt;stock_ML -->
<g id="edge14" class="edge">
<title>io&#45;&gt;stock_ML</title>
<path fill="none" stroke="black" d="M736.39,-350.15C701.8,-359.45 667.22,-363.92 632.63,-363.56"/>
<polygon fill="black" stroke="black" points="632.47,-360.06 622.39,-363.32 632.3,-367.06 632.47,-360.06"/>
</g>
<!-- stock_feature&#45;&gt;feature_lb -->
<g id="edge17" class="edge">
<title>stock_feature&#45;&gt;feature_lb</title>
<path fill="none" stroke="black" d="M1086,-308.6C1086,-297.14 1086,-283.66 1086,-272.06"/>
<polygon fill="black" stroke="black" points="1089.5,-272.06 1086,-262.06 1082.5,-272.06 1089.5,-272.06"/>
</g>
<!-- stock_feature&#45;&gt;io -->
<g id="edge9" class="edge">
<title>stock_feature&#45;&gt;io</title>
<path fill="none" stroke="black" d="M900.78,-322.6C886.25,-323.15 871.71,-324.07 857.18,-325.36"/>
<polygon fill="black" stroke="black" points="856.75,-321.88 847.12,-326.31 857.41,-328.85 856.75,-321.88"/>
</g>
<!-- stock_ML&#45;&gt;ml_lb -->
<g id="edge18" class="edge">
<title>stock_ML&#45;&gt;ml_lb</title>
<path fill="none" stroke="black" d="M445.42,-298.86C431.75,-288.4 417.18,-277.26 404.85,-267.83"/>
<polygon fill="black" stroke="black" points="406.79,-264.9 396.72,-261.61 402.54,-270.47 406.79,-264.9"/>
</g>
<!-- stock_ML&#45;&gt;io -->
<g id="edge10" class="edge">
<title>stock_ML&#45;&gt;io</title>
<path fill="none" stroke="black" d="M622.39,-307.64C657.12,-306.32 691.86,-309.87 726.59,-318.3"/>
<polygon fill="black" stroke="black" points="725.84,-321.71 736.39,-320.8 727.57,-314.93 725.84,-321.71"/>
</g>
<!-- machine3 -->
<g id="node17" class="node">
<title>machine3</title>
<polygon fill="none" stroke="black" stroke-dasharray="5,2" points="269.5,-262 130.5,-262 126.5,-258 126.5,-226 265.5,-226 269.5,-230 269.5,-262"/>
<polyline fill="none" stroke="black" stroke-dasharray="5,2" points="265.5,-258 126.5,-258 "/>
<polyline fill="none" stroke="black" stroke-dasharray="5,2" points="265.5,-258 265.5,-226 "/>
<polyline fill="none" stroke="black" stroke-dasharray="5,2" points="265.5,-258 269.5,-262 "/>
<text text-anchor="middle" x="198" y="-240.3" font-family="Handlee" font-size="14.00" fill="#00cd00">Server 3 with GPU</text>
</g>
<!-- machine2&#45;&gt;machine3 -->
<!-- machine4 -->
<g id="node18" class="node">
<title>machine4</title>
<polygon fill="none" stroke="black" stroke-dasharray="5,2" points="260.5,-178 139.5,-178 135.5,-174 135.5,-142 256.5,-142 260.5,-146 260.5,-178"/>
<polyline fill="none" stroke="black" stroke-dasharray="5,2" points="256.5,-174 135.5,-174 "/>
<polyline fill="none" stroke="black" stroke-dasharray="5,2" points="256.5,-174 256.5,-142 "/>
<polyline fill="none" stroke="black" stroke-dasharray="5,2" points="256.5,-174 260.5,-178 "/>
<text text-anchor="middle" x="198" y="-156.3" font-family="Handlee" font-size="14.00" fill="#00cd00">More servers ...</text>
</g>
<!-- machine3&#45;&gt;machine4 -->
<!-- feature&#45;&gt;feature -->
<g id="edge23" class="edge">
<title>feature&#45;&gt;feature</title>
<path fill="none" stroke="black" d="M1119.35,-173.47C1129.28,-173.07 1137,-168.58 1137,-160 1137,-154.64 1133.98,-150.87 1129.3,-148.71"/>
<polygon fill="black" stroke="black" points="1129.87,-145.25 1119.35,-146.53 1128.37,-152.09 1129.87,-145.25"/>
</g>
<!-- ml -->
<g id="node20" class="node">
<title>ml</title>
<polygon fill="none" stroke="black" points="1113,-105 1059,-105 1059,-69 1113,-69 1113,-105"/>
<text text-anchor="middle" x="1086" y="-83.3" font-family="Handlee" font-size="14.00">ml</text>
</g>
<!-- feature&#45;&gt;ml -->
<g id="edge25" class="edge">
<title>feature&#45;&gt;ml</title>
<path fill="none" stroke="black" d="M1080.12,-141.81C1079.28,-133.79 1079.05,-124.05 1079.42,-115.07"/>
<polygon fill="black" stroke="black" points="1082.92,-115.25 1080.14,-105.03 1075.94,-114.75 1082.92,-115.25"/>
</g>
<!-- ml&#45;&gt;feature -->
<g id="edge24" class="edge">
<title>ml&#45;&gt;feature</title>
<path fill="none" stroke="black" d="M1091.86,-105.03C1092.71,-113.03 1092.95,-122.77 1092.59,-131.75"/>
<polygon fill="black" stroke="black" points="1089.09,-131.59 1091.88,-141.81 1096.07,-132.08 1089.09,-131.59"/>
</g>
<!-- push -->
<g id="node21" class="node">
<title>push</title>
<polygon fill="none" stroke="black" points="1310.5,-179 1155.5,-179 1155.5,-141 1310.5,-141 1310.5,-179"/>
<text text-anchor="middle" x="1233" y="-163.8" font-family="Handlee" font-size="14.00">push code to server</text>
<text text-anchor="middle" x="1233" y="-148.8" font-family="Handlee" font-size="14.00"> and github</text>
</g>
<!-- push&#45;&gt;github -->
<g id="edge26" class="edge">
<title>push&#45;&gt;github</title>
<path fill="none" stroke="black" d="M1274.04,-140.9C1299.7,-129.58 1332.47,-115.13 1357.27,-104.2"/>
<polygon fill="black" stroke="black" points="1358.96,-107.28 1366.69,-100.04 1356.13,-100.87 1358.96,-107.28"/>
</g>
<!-- push&#45;&gt;admin_service -->
<g id="edge27" class="edge">
<title>push&#45;&gt;admin_service</title>
<path fill="none" stroke="black" d="M1248.68,-179.11C1258.61,-190.58 1271.59,-205.57 1282.49,-218.15"/>
<polygon fill="black" stroke="black" points="1280.1,-220.74 1289.29,-226.01 1285.39,-216.16 1280.1,-220.74"/>
</g>
<!-- Database -->
<g id="node22" class="node">
<title>Database</title>
<path fill="none" stroke="black" d="M1654,-622.03C1654,-623.83 1635.62,-625.3 1613,-625.3 1590.38,-625.3 1572,-623.83 1572,-622.03 1572,-622.03 1572,-592.57 1572,-592.57 1572,-590.77 1590.38,-589.3 1613,-589.3 1635.62,-589.3 1654,-590.77 1654,-592.57 1654,-592.57 1654,-622.03 1654,-622.03"/>
<path fill="none" stroke="black" d="M1654,-622.03C1654,-620.22 1635.62,-618.75 1613,-618.75 1590.38,-618.75 1572,-620.22 1572,-622.03"/>
<text text-anchor="middle" x="1613" y="-603.6" font-family="Handlee" font-size="14.00">Database</text>
</g>
<!-- Cloud -->
<g id="node23" class="node">
<title>Cloud</title>
<polygon fill="none" stroke="black" points="1653.29,-516.47 1645.31,-531.7 1613,-538.48 1580.69,-531.7 1572.71,-516.47 1595.07,-504.26 1630.93,-504.26 1653.29,-516.47"/>
<text text-anchor="middle" x="1613" y="-516.78" font-family="Handlee" font-size="14.00">Cloud</text>
</g>
<!-- Database&#45;&gt;Cloud -->
<!-- Server -->
<g id="node24" class="node">
<title>Server</title>
<ellipse fill="none" stroke="black" cx="1613" cy="-448.48" rx="40.09" ry="18"/>
<text text-anchor="middle" x="1613" y="-444.78" font-family="Handlee" font-size="14.00">Server</text>
</g>
<!-- Cloud&#45;&gt;Server -->
<!-- Code -->
<g id="node25" class="node">
<title>Code</title>
<polygon fill="none" stroke="black" points="1640,-353.48 1586,-353.48 1586,-317.48 1640,-317.48 1640,-353.48"/>
<text text-anchor="middle" x="1613" y="-331.78" font-family="Handlee" font-size="14.00">Code</text>
</g>
<!-- Server&#45;&gt;Code -->
<!-- Machine -->
<g id="node26" class="node">
<title>Machine</title>
<polygon fill="none" stroke="black" stroke-dasharray="5,2" points="1650,-262 1580,-262 1576,-258 1576,-226 1646,-226 1650,-230 1650,-262"/>
<polyline fill="none" stroke="black" stroke-dasharray="5,2" points="1646,-258 1576,-258 "/>
<polyline fill="none" stroke="black" stroke-dasharray="5,2" points="1646,-258 1646,-226 "/>
<polyline fill="none" stroke="black" stroke-dasharray="5,2" points="1646,-258 1650,-262 "/>
<text text-anchor="middle" x="1613" y="-240.3" font-family="Handlee" font-size="14.00">Machine</text>
</g>
<!-- Code&#45;&gt;Machine -->
</g>
</svg>
